<?xml version="1.0" encoding="UTF-8"?>
<svg xmlns="http://www.w3.org/2000/svg" viewBox="0 0 26 26" enable-background="new 0 0 26 26">
    <path d="M 22 0 L 22 3 L 21 3 C 20.4 3 20 3.4 20 4 L 20 9 C 20 9.6 20.4 10 21 10 L 25 10 C 25.6 10 26 9.6 26 9 L 26 4 C 26 3.4 25.6 3 25 3 L 24 3 L 24 0 L 22 0 z M 8 2 L 8 5 L 7 5 C 6.4 5 6 5.4 6 6 L 6 11 C 6 11.6 6.4 12 7 12 L 11 12 C 11.6 12 12 11.6 12 11 L 12 6 C 12 5.4 11.6 5 11 5 L 10 5 L 10 2 L 8 2 z M 16 9 L 16 12 L 15 12 C 14.4 12 14 12.4 14 13 L 14 17 C 14 17.6 14.4 18 15 18 L 19 18 C 19.6 18 20 17.6 20 17 L 20 13 C 20 12.4 19.6 12 19 12 L 18 12 L 18 9 L 16 9 z M 22 11 L 22 14 L 24 14 L 24 11 L 22 11 z M 2 12 L 2 15 L 1 15 C 0.4 15 0 15.4 0 16 L 0 21 C 0 21.6 0.4 22 1 22 L 5 22 C 5.6 22 6 21.6 6 21 L 6 16 C 6 15.4 5.6 15 5 15 L 4 15 L 4 12 L 2 12 z M 8 13 L 8 16 L 10 16 L 10 13 L 8 13 z M 2 17 L 4 17 L 4 20 L 2 20 L 2 17 z M 16 19 L 16 22 L 18 22 L 18 19 L 16 19 z M 2 23 L 2 26 L 4 26 L 4 23 L 2 23 z" fill="#ffffff"/>
</svg>