<svg id="Layer_1" data-name="Layer 1" xmlns="http://www.w3.org/2000/svg" xmlns:xlink="http://www.w3.org/1999/xlink" viewBox="0 0 924.01 185.03"><defs><style>.cls-1{fill:url(#linear-gradient);}.cls-2{fill:url(#linear-gradient-2);}.cls-3{opacity:0.39;fill:url(#linear-gradient-3);}.cls-4{fill:#fff;}.cls-5{fill:url(#linear-gradient-4);}</style><linearGradient id="linear-gradient" x1="16.18" y1="180.17" x2="197.16" y2="12.74" gradientUnits="userSpaceOnUse"><stop offset="0" stop-color="#e5383b"/><stop offset="1" stop-color="#7b2cbf"/></linearGradient><linearGradient id="linear-gradient-2" x1="16.18" y1="180.17" x2="197.16" y2="12.74" xlink:href="#linear-gradient"/><linearGradient id="linear-gradient-3" x1="234.49" y1="237.03" x2="266.61" y2="272.98" gradientTransform="matrix(1.29, 0.33, 0.33, 1.37, -330.82, -375.1)" gradientUnits="userSpaceOnUse"><stop offset="0" stop-color="#f7f7f7"/><stop offset="0.01" stop-color="#f7f7f7" stop-opacity="0.98"/><stop offset="0.3" stop-color="#f7f7f7" stop-opacity="0.64"/><stop offset="0.55" stop-color="#f7f7f7" stop-opacity="0.37"/><stop offset="0.75" stop-color="#f7f7f7" stop-opacity="0.17"/><stop offset="0.91" stop-color="#f7f7f7" stop-opacity="0.05"/><stop offset="1" stop-color="#f7f7f7" stop-opacity="0"/></linearGradient><linearGradient id="linear-gradient-4" x1="874.56" y1="55.78" x2="912" y2="41.74" xlink:href="#linear-gradient"/></defs><path class="cls-1" d="M192.33,3.51H79.3C45.8,3.51,18.54,29.77,18.54,62V181.51h124c33.5,0,60.76-26.25,60.76-58.53V3.51Zm0,119.47c0,26.43-22.32,47.94-49.76,47.94h-113V62c0-26.43,22.33-47.93,49.76-47.93h113Z"/><path class="cls-2" d="M40.45,62v98.37H142.57c21.42,0,38.85-16.79,38.85-37.43V24.62H79.3C57.88,24.62,40.45,41.41,40.45,62Z"/><path class="cls-3" d="M103.88,45c10.42,11.39,8.94,29.05-3.31,39.44S70,94,59.53,82.59,50.6,53.54,62.84,43.15,93.46,33.57,103.88,45Z"/><path class="cls-4" d="M355.59,142.49a56.8,56.8,0,0,1-10.82,6.73,55.57,55.57,0,0,1-12.87,4.26,77.26,77.26,0,0,1-15.69,1.46,61.77,61.77,0,0,1-24.37-4.78,58.86,58.86,0,0,1-32.22-32.56,62.81,62.81,0,0,1-4.6-24v-.34a62,62,0,0,1,17.39-43.56A59.23,59.23,0,0,1,292,36.38a63.76,63.76,0,0,1,25.23-4.86,78.83,78.83,0,0,1,15.25,1.36A63.78,63.78,0,0,1,345,36.64a53.82,53.82,0,0,1,10.4,5.79,71.9,71.9,0,0,1,8.87,7.5L347.58,69.19a63.27,63.27,0,0,0-14.23-9.88,36.25,36.25,0,0,0-16.28-3.58,32.92,32.92,0,0,0-24.89,10.91A37.07,37.07,0,0,0,285,78.48a40.13,40.13,0,0,0-2.56,14.41v.34A40.84,40.84,0,0,0,285,107.72a38,38,0,0,0,7.07,11.93,32.87,32.87,0,0,0,25,11.08q10.23,0,17.3-3.75a67.29,67.29,0,0,0,14.06-10.23l16.71,16.87A86.51,86.51,0,0,1,355.59,142.49Z"/><path class="cls-4" d="M465.05,133.37a32.29,32.29,0,0,1-9,11.59,40.24,40.24,0,0,1-13.74,7.16,59.67,59.67,0,0,1-17.7,2.47,79,79,0,0,1-26.76-4.68A70.82,70.82,0,0,1,374,135.5l15.51-18.57a77.87,77.87,0,0,0,16.79,10.56,44.83,44.83,0,0,0,18.84,3.92q8.19,0,12.7-3a9.39,9.39,0,0,0,4.52-8.27v-.34a10.32,10.32,0,0,0-.95-4.52,9.47,9.47,0,0,0-3.59-3.66,38,38,0,0,0-7.34-3.41,127.22,127.22,0,0,0-12.22-3.58,147.26,147.26,0,0,1-16.41-5A45.82,45.82,0,0,1,389.37,93a27.3,27.3,0,0,1-7.95-10q-2.82-6-2.82-14.83v-.34a34.6,34.6,0,0,1,3-14.74,33.47,33.47,0,0,1,8.55-11.34,38.33,38.33,0,0,1,13.15-7.33,52.93,52.93,0,0,1,16.84-2.56,71.51,71.51,0,0,1,24.13,3.92A70.27,70.27,0,0,1,464.52,47L450.88,66.81A86.18,86.18,0,0,0,435.2,58.2a40,40,0,0,0-15.34-3.15q-7.68,0-11.51,3a9.08,9.08,0,0,0-3.84,7.43v.33a10.73,10.73,0,0,0,1.11,5,10.1,10.1,0,0,0,4,3.84,37.14,37.14,0,0,0,7.95,3.23q5,1.55,12.73,3.59a123.15,123.15,0,0,1,16.15,5.36,45,45,0,0,1,12,7.17,27.35,27.35,0,0,1,7.35,9.8,33.25,33.25,0,0,1,2.48,13.46v.34A37,37,0,0,1,465.05,133.37Z"/><path class="cls-4" d="M559.46,152.89l-25.57-38.18H513.27v38.18H487V33.57h54.55q21.3,0,33.16,10.39t11.84,29v.34q0,14.47-7.07,23.6A40.86,40.86,0,0,1,561,110.27l29.14,42.62ZM560,74.31c0-5.69-1.82-9.94-5.45-12.79s-8.7-4.26-15.17-4.26H513.27V91.52h26.59q9.72,0,14.91-4.6A15.57,15.57,0,0,0,560,74.65Z"/><path class="cls-5" d="M907.45,49.1A15.09,15.09,0,1,1,892.37,34,15.09,15.09,0,0,1,907.45,49.1Z"/><path class="cls-4" d="M604.62,33.7h16.14V137.63h54.66v15.14h-70.8Z"/><path class="cls-4" d="M685.17,73.05h15.14v79.72H685.17Z"/><path class="cls-4" d="M710.73,73.05h17.49L752.1,134.1l22.87-61h16.15l-31.28,79.72H743.19Z"/><path class="cls-4" d="M811.8,118.46a19.9,19.9,0,0,0,2.28,9.5,23.68,23.68,0,0,0,6,7.32,27.61,27.61,0,0,0,8.58,4.7,30.53,30.53,0,0,0,10.09,1.69A22.65,22.65,0,0,0,851,138.39a39.76,39.76,0,0,0,9.59-8.66L872,138.47q-12.62,16.32-35.31,16.31a43.91,43.91,0,0,1-17.08-3.19,37.2,37.2,0,0,1-13-8.83,39.05,39.05,0,0,1-8.15-13.29,46.84,46.84,0,0,1-2.86-16.56,43.67,43.67,0,0,1,3.11-16.57,41.1,41.1,0,0,1,8.58-13.28,39.08,39.08,0,0,1,13-8.83A42,42,0,0,1,836.86,71q10.6,0,17.91,3.7a35.44,35.44,0,0,1,12,9.67,38.31,38.31,0,0,1,6.81,13.46,56.07,56.07,0,0,1,2.1,15.22v5.38Zm47.77-12.11A32.24,32.24,0,0,0,858,97.1a20.51,20.51,0,0,0-4.29-7.31,19.64,19.64,0,0,0-7.15-4.88,26.07,26.07,0,0,0-10-1.77,24.34,24.34,0,0,0-10.18,2.1,25,25,0,0,0-7.82,5.47,25.34,25.34,0,0,0-5,7.48,20.58,20.58,0,0,0-1.77,8.16Z"/><path class="cls-4" d="M683.84,42.58a9,9,0,1,1,15.35,6.34,9,9,0,0,1-15.35-6.34Z"/></svg>