<svg id="Layer_1" data-name="Layer 1" xmlns="http://www.w3.org/2000/svg" xmlns:xlink="http://www.w3.org/1999/xlink" viewBox="0 0 473.1 396"><defs><style>.cls-1{fill:url(#linear-gradient);}.cls-2{fill:url(#linear-gradient-2);}.cls-3{opacity:0.39;fill:url(#linear-gradient-3);}.cls-4{fill:#fff;}.cls-5{fill:url(#linear-gradient-4);}</style><linearGradient id="linear-gradient" x1="123.23" y1="225.81" x2="343.3" y2="22.22" gradientUnits="userSpaceOnUse"><stop offset="0" stop-color="#e5383b"/><stop offset="1" stop-color="#7b2cbf"/></linearGradient><linearGradient id="linear-gradient-2" x1="123.23" y1="225.81" x2="343.3" y2="22.22" xlink:href="#linear-gradient"/><linearGradient id="linear-gradient-3" x1="606.23" y1="542.1" x2="645.29" y2="585.81" gradientTransform="matrix(1.29, 0.33, 0.33, 1.37, -796.47, -903.87)" gradientUnits="userSpaceOnUse"><stop offset="0" stop-color="#f7f7f7"/><stop offset="0.01" stop-color="#f7f7f7" stop-opacity="0.98"/><stop offset="0.3" stop-color="#f7f7f7" stop-opacity="0.64"/><stop offset="0.55" stop-color="#f7f7f7" stop-opacity="0.37"/><stop offset="0.75" stop-color="#f7f7f7" stop-opacity="0.17"/><stop offset="0.91" stop-color="#f7f7f7" stop-opacity="0.05"/><stop offset="1" stop-color="#f7f7f7" stop-opacity="0"/></linearGradient><linearGradient id="linear-gradient-4" x1="439.33" y1="317.09" x2="464.97" y2="307.48" xlink:href="#linear-gradient"/></defs><path class="cls-1" d="M337.42,11H200c-40.74,0-73.89,31.93-73.89,71.17V227.44H276.91c40.74,0,73.89-31.93,73.89-71.17V11Zm0,145.27c0,32.14-27.14,58.28-60.51,58.28H139.48V82.17c0-32.14,27.14-58.28,60.51-58.28H337.42Z"/><path class="cls-2" d="M152.74,82.17V201.78H276.91c26,0,47.25-20.42,47.25-45.51V36.66H200C173.94,36.66,152.74,57.07,152.74,82.17Z"/><path class="cls-3" d="M229.87,61.41c12.67,13.85,10.87,35.33-4,48S188.62,121,176,107.15s-10.87-35.33,4-48S217.2,47.55,229.87,61.41Z"/><path class="cls-4" d="M83.92,376.48A38.13,38.13,0,0,1,67.69,384,53.21,53.21,0,0,1,57,385a42.29,42.29,0,0,1-16.69-3.27,40.24,40.24,0,0,1-22.06-22.3A42.84,42.84,0,0,1,15,343v-.24A42.54,42.54,0,0,1,27,312.91a40.4,40.4,0,0,1,13.43-9.1,43.63,43.63,0,0,1,17.27-3.33,54.22,54.22,0,0,1,10.45.93A44.11,44.11,0,0,1,76.68,304a37,37,0,0,1,7.12,4,47.65,47.65,0,0,1,6.07,5.14L78.43,326.28a43,43,0,0,0-9.75-6.77,24.84,24.84,0,0,0-11.14-2.45A22.83,22.83,0,0,0,48,319a22.52,22.52,0,0,0-7.53,5.49,25.61,25.61,0,0,0-4.9,8.11,27.56,27.56,0,0,0-1.75,9.87v.23a28,28,0,0,0,1.75,9.92,26.21,26.21,0,0,0,4.84,8.18,22.77,22.77,0,0,0,7.47,5.54,22.54,22.54,0,0,0,9.64,2,24.88,24.88,0,0,0,11.84-2.57,46.07,46.07,0,0,0,9.64-7l11.44,11.56A61.44,61.44,0,0,1,83.92,376.48Z"/><path class="cls-4" d="M158.88,370.23a22.1,22.1,0,0,1-6.15,7.94,27.5,27.5,0,0,1-9.41,4.9,40.85,40.85,0,0,1-12.12,1.7,54.35,54.35,0,0,1-18.33-3.21,48.44,48.44,0,0,1-16.34-9.87L107.15,359a53.67,53.67,0,0,0,11.5,7.24,30.75,30.75,0,0,0,12.9,2.68c3.74,0,6.63-.68,8.7-2a6.44,6.44,0,0,0,3.09-5.66V361a7.05,7.05,0,0,0-.65-3.09,6.44,6.44,0,0,0-2.45-2.51,25.73,25.73,0,0,0-5-2.34q-3.21-1.15-8.36-2.45a100.23,100.23,0,0,1-11.24-3.39,31.19,31.19,0,0,1-8.55-4.61,18.61,18.61,0,0,1-5.44-6.82,23.73,23.73,0,0,1-1.93-10.16v-.23a23.58,23.58,0,0,1,2.09-10.1,22.94,22.94,0,0,1,5.85-7.76,26.3,26.3,0,0,1,9-5,36.14,36.14,0,0,1,11.54-1.76,48.85,48.85,0,0,1,16.52,2.69,48.15,48.15,0,0,1,13.84,7.7l-9.34,13.55a58.81,58.81,0,0,0-10.74-5.9,27.5,27.5,0,0,0-10.51-2.16q-5.25,0-7.88,2a6.22,6.22,0,0,0-2.63,5.08v.23a7.47,7.47,0,0,0,.76,3.45,6.88,6.88,0,0,0,2.76,2.62,25.14,25.14,0,0,0,5.44,2.22q3.45,1,8.72,2.46a82.8,82.8,0,0,1,11.06,3.67,30.63,30.63,0,0,1,8.19,4.91,18.66,18.66,0,0,1,5,6.71,22.76,22.76,0,0,1,1.69,9.22v.23A25.26,25.26,0,0,1,158.88,370.23Z"/><path class="cls-4" d="M223.54,383.6,206,357.45H191.9V383.6h-18V301.88h37.36q14.6,0,22.71,7.12t8.11,19.85v.23q0,9.93-4.84,16.17a28.06,28.06,0,0,1-12.67,9.16l20,29.19Zm.35-53.82c0-3.89-1.25-6.8-3.74-8.76s-6-2.91-10.39-2.91H191.9v23.46h18.21q6.66,0,10.22-3.15a10.68,10.68,0,0,0,3.56-8.41Z"/><path class="cls-5" d="M461.86,312.52a10.33,10.33,0,1,1-10.33-10.33A10.33,10.33,0,0,1,461.86,312.52Z"/><path class="cls-4" d="M254.46,302h11.06v71.18H303v10.36H254.46Z"/><path class="cls-4" d="M309.63,328.92H320v54.59H309.63Z"/><path class="cls-4" d="M327.14,328.92h12l16.36,41.81,15.66-41.81h11.06l-21.42,54.59h-11.4Z"/><path class="cls-4" d="M396.35,360a13.67,13.67,0,0,0,1.56,6.51,16.42,16.42,0,0,0,4.09,5,19,19,0,0,0,5.87,3.22,21,21,0,0,0,6.91,1.15,15.51,15.51,0,0,0,8.41-2.24,27.36,27.36,0,0,0,6.57-5.93l7.83,6Q429,384.9,413.4,384.9a30,30,0,0,1-11.69-2.19,25.42,25.42,0,0,1-8.87-6,26.62,26.62,0,0,1-5.58-9.1,32,32,0,0,1-2-11.34,29.89,29.89,0,0,1,2.13-11.35,28.33,28.33,0,0,1,5.87-9.1,26.85,26.85,0,0,1,8.93-6,28.66,28.66,0,0,1,11.29-2.19,27.08,27.08,0,0,1,12.26,2.53A24.2,24.2,0,0,1,434,336.7a26.05,26.05,0,0,1,4.67,9.21,38.36,38.36,0,0,1,1.44,10.42V360Zm32.71-8.29a22.06,22.06,0,0,0-1.09-6.34,13.83,13.83,0,0,0-2.94-5,13.59,13.59,0,0,0-4.89-3.34,18.07,18.07,0,0,0-6.86-1.21,16.61,16.61,0,0,0-7,1.44A16.86,16.86,0,0,0,401,341a17.27,17.27,0,0,0-3.4,5.12,14.2,14.2,0,0,0-1.21,5.59Z"/><path class="cls-4" d="M308.72,308.05a6.21,6.21,0,0,1,6.16-6.16,6.14,6.14,0,1,1-6.16,6.16Z"/></svg>