<?xml version="1.0" encoding="UTF-8"?>
<svg xmlns="http://www.w3.org/2000/svg" width="26" height="26" viewBox="0 0 26 26">
    <path d="M 23 1.1875 C 21.998708 1.1875 21.1875 1.9987078 21.1875 3 C 21.1875 3.1251615 21.194599 3.2569781 21.21875 3.375 L 18.78125 5.375 C 18.546128 5.2635668 18.277481 5.1875 18 5.1875 C 17.405001 5.1875 16.893071 5.4947949 16.5625 5.9375 L 14.75 5.5625 C 14.556183 4.7698409 13.852377 4.1875 13 4.1875 C 11.998708 4.1875 11.1875 4.9987078 11.1875 6 C 11.1875 6.1489148 11.216139 6.2990183 11.25 6.4375 L 8.78125 8.375 C 8.5461284 8.2635668 8.2774807 8.1875 8 8.1875 C 6.9987078 8.1875 6.1875 8.9987078 6.1875 10 C 6.1875 10.051791 6.1832428 10.10556 6.1875 10.15625 L 3.9375 11.46875 C 3.6612508 11.298478 3.3483269 11.1875 3 11.1875 C 1.9987078 11.1875 1.1875 11.998708 1.1875 13 C 1.1875 14.001292 1.9987078 14.8125 3 14.8125 C 4.0012922 14.8125 4.8125 14.001292 4.8125 13 C 4.8125 12.926629 4.7897219 12.85234 4.78125 12.78125 L 7.03125 11.5 C 7.3156626 11.685454 7.6351423 11.8125 8 11.8125 C 9.0012922 11.8125 9.8125 11.001292 9.8125 10 C 9.8125 9.8748385 9.8054008 9.7430219 9.78125 9.625 L 12.28125 7.65625 C 12.498154 7.7479928 12.749677 7.8125 13 7.8125 C 13.570929 7.8125 14.073925 7.5374741 14.40625 7.125 L 16.25 7.5 C 16.463038 8.2643462 17.167722 8.8125 18 8.8125 C 19.001292 8.8125 19.8125 8.0012922 19.8125 7 C 19.8125 6.8748385 19.805401 6.7430219 19.78125 6.625 L 22.21875 4.625 C 22.453872 4.7364332 22.722519 4.8125 23 4.8125 C 24.001292 4.8125 24.8125 4.0012922 24.8125 3 C 24.8125 1.9987078 24.001292 1.1875 23 1.1875 z M 22 11 C 21.448 11 21 11.449 21 12 L 21 25 C 21 25.551 21.448 26 22 26 L 24 26 C 24.551 26 25 25.551 25 25 L 25 12 C 25 11.449 24.551 11 24 11 L 22 11 z M 12 13 C 11.448 13 11 13.449 11 14 L 11 25 C 11 25.551 11.448 26 12 26 L 14 26 C 14.551 26 15 25.551 15 25 L 15 14 C 15 13.449 14.551 13 14 13 L 12 13 z M 17 15 C 16.448 15 16 15.449 16 16 L 16 25 C 16 25.551 16.448 26 17 26 L 19 26 C 19.551 26 20 25.551 20 25 L 20 16 C 20 15.449 19.551 15 19 15 L 17 15 z M 7 16 C 6.448 16 6 16.449 6 17 L 6 25 C 6 25.551 6.448 26 7 26 L 9 26 C 9.551 26 10 25.551 10 25 L 10 17 C 10 16.449 9.551 16 9 16 L 7 16 z M 2 18 C 1.448 18 1 18.449 1 19 L 1 25 C 1 25.551 1.448 26 2 26 L 4 26 C 4.551 26 5 25.551 5 25 L 5 19 C 5 18.449 4.551 18 4 18 L 2 18 z" fill="#ffffff"/>
</svg>